<svg xmlns="http://www.w3.org/2000/svg" viewBox="0 0 160 32" fill="none">
  <!-- Manus hand/coral icon -->
  <g transform="translate(0,2) scale(1.1)">
    <path d="M14 24c1.4-.9 2.3-4.7 2.1-6.1 0 0-.2-.8-.7-.8s-.6.6-.6.6-1 3.4-1.8 3.8c-.8.4-1.6 0-1.6 0 .6 2.3 1.4 4.3 2.6 3.4z" fill="currentColor"/>
    <path d="M12 8.6c.3 1.2.7 1.1 1.2 2-.4-.8-.5-1.5-.3-2.4.2-.9.5-1 .8-1.2-.4.1-.8.1-1 .3-.3.2-.4.5-.5.8-.1.2-.2.4-.2.5z" fill="currentColor"/>
    <path d="M8 10c.3-.2.4-.5.4-.9-.1-.5-.3-.7-.4-.7s.1.1.3.3c.3.3.5.5.7.6.2.1.3.1.5.2-.4-.2-.9-.4-1.2-.2-.2.1-.2.3-.1.5 0 .1.1.2.1.3-.1 0-.2-.1-.3-.1z" fill="currentColor"/>
    <path d="M4 9c.3-.7 1.1-.6 2.2-.2.9.3 2.4 1.1 3.2 1.5-.1-.2.1-.4.4-.7.2-.4.6-.9.9-1.3.5-.5 1-.3 1-.3s.3.2.3.6-.2 1-.2 1-.1.6-.1 1.1c.5.8.8 1.1 1 1.6s-.1.8.1 1.2.8 1 1 1.1c.2.1.2.1.3.2 0 .5-.5 1.4-.7 1.7-.6.8-.8.9-1.1.9 0 0-2-.4-2.5-.6-1-.4-3.5-.5-3.5-1.7 0-.6.2-1 .2-1s-.6 0-.7-.5c-.2-.8 1.5-1.9.4-2.4-.5-.2-3-.7-2.5-1.7z" fill="currentColor"/>
  </g>
  <!-- "manus" wordmark -->
  <path d="M38 10v14h4V14.5l4.5 9.5h2l4.5-9.5V24h4V10h-5L47 19l-4.5-9H38z" fill="currentColor"/>
  <path d="M63 10l-7 14h4.5l1.3-3h6.4l1.3 3H74L67 10h-4zm2 4l2 4.5h-4L63 14z" fill="currentColor" transform="translate(1,0)"/>
  <path d="M78 10v14h4V14l7 10h4V10h-4v10l-7-10h-4z" fill="currentColor"/>
  <path d="M99 10v8c0 2.5 1.5 3.5 4 3.5s4-1 4-3.5v-8h-4v7.5c0 .8-.3 1-1 1s-1-.2-1-1V10h-4z" fill="currentColor" transform="translate(1,0)"/>
  <path d="M113 18.5c0 3.5 2.5 5.5 6 5.5s6-2 6-4.5c0-2-1.2-3.2-3.5-3.8l-2.5-.6c-1-.3-1.5-.6-1.5-1.2 0-.7.7-1.2 1.5-1.2s1.6.4 1.8 1.2h4.2c-.3-2.8-2.5-4.5-6-4.5-3 0-5.5 2-5.5 4.5 0 2 1.2 3 3.5 3.6l2.5.6c1 .3 1.5.6 1.5 1.3 0 .8-.7 1.3-1.8 1.3-1.2 0-2-.5-2.2-1.5H113z" fill="currentColor"/>
</svg>
