<svg xmlns="http://www.w3.org/2000/svg" viewBox="0 0 130 38" fill="currentColor">
  <!-- Manus hand icon (scaled from 24x24) -->
  <g transform="scale(1.583)">
    <!-- Finger/splash -->
    <path d="M17.6335 22.5843C19.2956 21.5297 20.4448 15.874 20.192 14.1899C20.192 14.1899 19.9286 13.2857 19.2857 13.2857C18.6429 13.2857 18.3754 13.963 18.3754 13.963C18.3754 13.963 17.278 18.0192 16.2857 18.4766C15.2934 18.934 14.3312 18.4766 14.3312 18.4766C15.0597 21.2397 15.9713 23.6388 17.6335 22.5843Z"/>
    <!-- Hand body -->
    <path d="M15.1488 8.35717L14.8769 9.43597C14.5717 10.9286 15.0225 11.2471 15.6431 12.2143C16.2638 13.1815 15.8175 14.0877 16.0716 14.5714C16.3258 15.0552 17.4444 15.311 17.8514 15.4626C18.2584 15.6143 17.9898 15.562 18.2116 15.6574C18.2045 16.2825 17.6297 17.4391 17.323 17.8479C16.5845 18.8324 16.3061 18.975 15.8571 18.8571C15.8571 18.8571 13.4239 18.3629 12.8278 18.165C11.5699 17.6981 8.40549 17.4793 8.35726 16.0715C8.33403 15.3931 8.57171 14.7857 8.57171 14.7857C8.57171 14.7857 7.8771 14.7886 7.72621 14.1431C7.51733 13.2496 9.58927 11.7234 8.14299 11.1428C7.58039 10.917 4.28656 10.2859 4.92908 8.99997C5.33142 8.19475 6.43373 8.26131 7.92885 8.7857C8.99872 9.16093 10.803 10.0531 11.786 10.5C11.7416 10.3015 12.04 9.97753 12.4288 9.64282C12.6431 9.21425 13.1162 8.50469 13.5668 7.96431C14.1589 7.42534 14.857 7.6186 14.857 7.6186C15.2482 7.82807 15.1488 8.35717 15.1488 8.35717Z"/>
    <!-- Hand curve detail -->
    <path d="M7.71498 12.0001C8.30182 11.4302 10.0059 10.9969 11.7867 11.7858C13.5676 12.5746 13.8721 15.2062 13.1206 16.0674C12.3692 16.9286 10.7152 16.0674 10.7152 16.0674" fill="none" stroke="currentColor" stroke-width="1.71429" stroke-linecap="round" stroke-linejoin="round"/>
    <!-- Motion lines -->
    <path d="M6.43004 5.1428C5.79407 4.42578 5.14453 4.07134 4.50157 3.75595" fill="none" stroke="currentColor" stroke-width="1.71429" stroke-linecap="round"/>
    <path d="M9.12714 3.9793C9.00084 3.21423 8.78655 2.57138 8.57227 1.71423" fill="none" stroke="currentColor" stroke-width="1.71429" stroke-linecap="round"/>
    <path d="M12.0007 4.49997C12.1175 3.60306 12.4293 2.78568 12.8193 2.14282" fill="none" stroke="currentColor" stroke-width="1.71429" stroke-linecap="round"/>
  </g>
  <!-- "manus" wordmark -->
  <g transform="translate(42, 0)">
    <!-- m -->
    <path d="M12.104 21.3699C12.104 21.9859 12.1186 22.4699 12.148 22.8219C12.1773 23.1739 12.258 23.4452 12.39 23.6359C12.522 23.8119 12.7126 23.9292 12.962 23.9879C13.2113 24.0465 13.556 24.0905 13.996 24.1199V24.9999H7.044V24.1199C7.484 24.0905 7.836 24.0465 8.1 23.9879C8.364 23.9292 8.562 23.8119 8.694 23.6359C8.826 23.4599 8.914 23.2105 8.958 22.8879C9.002 22.5505 9.024 22.1032 9.024 21.5459V18.8179C9.024 17.9819 9.0093 17.2852 8.98 16.7279C8.9653 16.1705 8.9286 15.7892 8.87 15.5839C8.826 15.3932 8.7673 15.2465 8.694 15.1439C8.6353 15.0265 8.5326 14.9385 8.386 14.8799C8.254 14.8065 8.078 14.7625 7.858 14.7479C7.638 14.7185 7.352 14.7039 7 14.7039V13.9559L11.246 13.1199L11.51 15.0339H11.642C12.258 14.3445 12.874 13.8532 13.49 13.5599C14.1206 13.2665 14.8466 13.1199 15.668 13.1199C16.636 13.1199 17.4353 13.2885 18.066 13.6259C18.6966 13.9632 19.1733 14.4472 19.496 15.0779H19.584C20.112 14.4619 20.7426 13.9852 21.476 13.6479C22.2093 13.2959 22.994 13.1199 23.83 13.1199C24.71 13.1199 25.4726 13.2299 26.118 13.4499C26.778 13.6699 27.2913 13.9852 27.658 14.3959C27.9513 14.7332 28.164 15.1732 28.296 15.7159C28.4426 16.2585 28.516 17.0139 28.516 17.9819V21.3699C28.516 21.9712 28.5306 22.4479 28.56 22.7999C28.604 23.1519 28.692 23.4232 28.824 23.6139C28.956 23.8045 29.1466 23.9292 29.396 23.9879C29.6453 24.0465 29.99 24.0905 30.43 24.1199V24.9999H23.478V24.1199C23.918 24.1052 24.2626 24.0685 24.512 24.0099C24.776 23.9365 24.974 23.8119 25.106 23.6359C25.2526 23.4452 25.3406 23.1885 25.37 22.8659C25.414 22.5432 25.436 22.1032 25.436 21.5459V18.6639C25.436 17.9012 25.392 17.2559 25.304 16.7279C25.216 16.1999 25.0766 15.7745 24.886 15.4519C24.6953 15.1292 24.4386 14.9019 24.116 14.7699C23.808 14.6232 23.4266 14.5499 22.972 14.5499C22.4586 14.5499 22.0333 14.6745 21.696 14.9239C21.3733 15.1732 21.102 15.4959 20.882 15.8919C20.5006 16.5812 20.31 17.4392 20.31 18.4659V21.3699C20.31 21.9712 20.3246 22.4479 20.354 22.7999C20.3833 23.1519 20.464 23.4232 20.596 23.6139C20.728 23.8045 20.9186 23.9292 21.168 23.9879C21.432 24.0465 21.7913 24.0905 22.246 24.1199V24.9999H15.272V24.1199C15.712 24.0905 16.0566 24.0465 16.306 23.9879C16.57 23.9292 16.768 23.8119 16.9 23.6359C17.0466 23.4599 17.1346 23.2105 17.164 22.8879C17.208 22.5505 17.23 22.1032 17.23 21.5459V18.6639C17.23 17.9012 17.186 17.2559 17.098 16.7279C17.01 16.1999 16.8633 15.7745 16.658 15.4519C16.4673 15.1292 16.2106 14.9019 15.888 14.7699C15.5653 14.6232 15.162 14.5499 14.678 14.5499C14.194 14.5499 13.7906 14.6672 13.468 14.9019C13.16 15.1365 12.9033 15.4519 12.698 15.8479C12.5073 16.1999 12.3606 16.6032 12.258 17.0579C12.1553 17.5125 12.104 17.9819 12.104 18.4659V21.3699Z"/>
    <!-- a -->
    <path d="M38.1208 18.7299C36.8888 19.2872 35.9575 19.8079 35.3268 20.2919C34.7108 20.7612 34.4028 21.2525 34.4028 21.7659C34.4028 22.1912 34.5202 22.5285 34.7548 22.7779C34.9895 23.0272 35.2828 23.1519 35.6348 23.1519C35.9868 23.1519 36.3168 23.0932 36.6248 22.9759C36.9328 22.8439 37.1968 22.6752 37.4168 22.4699C37.6368 22.2645 37.8055 22.0225 37.9228 21.7439C38.0548 21.4505 38.1208 21.1425 38.1208 20.8199V18.7299ZM38.1208 17.5639V16.6399C38.1208 15.7892 37.9668 15.1732 37.6588 14.7919C37.3655 14.3959 36.9035 14.1979 36.2728 14.1979C35.8475 14.1979 35.5248 14.3152 35.3048 14.5499C35.0848 14.7699 34.8795 15.1439 34.6888 15.6719C34.5568 16.0385 34.3662 16.3245 34.1168 16.5299C33.8822 16.7352 33.5522 16.8379 33.1268 16.8379C32.7162 16.8379 32.4008 16.7132 32.1808 16.4639C31.9608 16.2145 31.8508 15.8625 31.8508 15.4079C31.8508 14.7039 32.2322 14.1465 32.9948 13.7359C33.7722 13.3252 34.9382 13.1199 36.4928 13.1199C38.1355 13.1199 39.3088 13.4205 40.0128 14.0219C40.7168 14.6085 41.0688 15.5985 41.0688 16.9919V21.8099C41.0688 23.0565 41.3182 23.6799 41.8168 23.6799C42.0955 23.6799 42.3522 23.5845 42.5868 23.3939L42.9168 24.0319C42.7115 24.3985 42.3888 24.6919 41.9488 24.9119C41.5235 25.1172 41.0395 25.2199 40.4968 25.2199C39.8222 25.2199 39.3088 25.0145 38.9568 24.6039C38.6048 24.1932 38.4288 23.6139 38.4288 22.8659H38.3188C37.8935 23.6285 37.3435 24.2079 36.6688 24.6039C35.9942 24.9999 35.2242 25.1979 34.3588 25.1979C33.4348 25.1979 32.6942 24.9412 32.1368 24.4279C31.5795 23.8999 31.3008 23.2179 31.3008 22.3819C31.3008 21.7365 31.5868 21.1352 32.1588 20.5779C32.7308 20.0059 33.6842 19.4485 35.0188 18.9059L38.1208 17.5639Z"/>
    <!-- n -->
    <path d="M48.6196 21.4139C48.6196 22.0152 48.6342 22.4919 48.6636 22.8439C48.7076 23.1812 48.7882 23.4452 48.9056 23.6359C49.0376 23.8119 49.2282 23.9292 49.4776 23.9879C49.7416 24.0465 50.0936 24.0905 50.5336 24.1199V24.9999H43.6036V24.1199C44.0289 24.0905 44.3662 24.0465 44.6156 23.9879C44.8796 23.9292 45.0776 23.8119 45.2096 23.6359C45.3562 23.4599 45.4516 23.2105 45.4956 22.8879C45.5396 22.5652 45.5616 22.1252 45.5616 21.5679V18.8179C45.5616 17.9525 45.5469 17.2559 45.5176 16.7279C45.4882 16.1852 45.4516 15.8185 45.4076 15.6279C45.3636 15.4372 45.3049 15.2832 45.2316 15.1659C45.1582 15.0339 45.0482 14.9385 44.9016 14.8799C44.7549 14.8065 44.5716 14.7625 44.3516 14.7479C44.1316 14.7185 43.8529 14.7039 43.5156 14.7039V13.9559L47.7616 13.1199L48.0476 15.0559H48.1356C48.6196 14.4399 49.1916 13.9632 49.8516 13.6259C50.5116 13.2885 51.2376 13.1199 52.0296 13.1199C52.9682 13.1199 53.7236 13.2519 54.2956 13.5159C54.8822 13.7652 55.4029 14.1905 55.8576 14.7919C56.1069 15.1292 56.3269 15.5692 56.5176 16.1119C56.7082 16.6399 56.8036 17.3732 56.8036 18.3119V21.4139C56.8036 22.0152 56.8182 22.4919 56.8476 22.8439C56.8916 23.1812 56.9722 23.4452 57.0896 23.6359C57.2216 23.8119 57.4122 23.9292 57.6616 23.9879C57.9109 24.0465 58.2482 24.0905 58.6736 24.1199V24.9999H51.7876V24.1199C52.2276 24.1052 52.5722 24.0685 52.8216 24.0099C53.0856 23.9365 53.2836 23.8119 53.4156 23.6359C53.5476 23.4599 53.6356 23.2105 53.6796 22.8879C53.7236 22.5505 53.7456 22.1105 53.7456 21.5679V18.5759C53.7456 17.8279 53.7016 17.1972 53.6136 16.6839C53.5256 16.1705 53.3789 15.7599 53.1736 15.4519C52.9829 15.1292 52.7262 14.9019 52.4036 14.7699C52.0809 14.6232 51.6776 14.5499 51.1936 14.5499C50.7242 14.5499 50.3209 14.6819 49.9836 14.9459C49.6462 15.2099 49.3529 15.5765 49.1036 16.0459C48.9716 16.3099 48.8542 16.6545 48.7516 17.0799C48.6636 17.4905 48.6196 17.9232 48.6196 18.3779V21.4139Z"/>
    <!-- u -->
    <path d="M68.9587 16.9478C68.9587 16.3612 68.9437 15.8992 68.9147 15.5618C68.8853 15.2098 68.8047 14.9458 68.6727 14.7698C68.5407 14.5792 68.3427 14.4545 68.0787 14.3958C67.8293 14.3225 67.4847 14.2638 67.0447 14.2198V13.3398H72.0167V20.0058C72.0167 20.9005 72.0237 21.6045 72.0387 22.1178C72.0677 22.6165 72.1117 22.9905 72.1707 23.2398C72.2147 23.4305 72.2657 23.5845 72.3247 23.7018C72.3837 23.8045 72.4787 23.8925 72.6107 23.9658C72.7427 24.0245 72.9187 24.0685 73.1387 24.0978C73.3737 24.1125 73.6737 24.1198 74.0407 24.1198V24.9778L69.6627 25.2418L69.4207 23.2838H69.3327C68.9517 23.8998 68.416 24.3765 67.7267 24.7138C67.0373 25.0512 66.2673 25.2198 65.4167 25.2198C63.8473 25.2198 62.652 24.6625 61.8307 23.5478C61.2 22.6972 60.8847 21.4872 60.8847 19.9178V16.9478C60.8847 16.3465 60.87 15.8772 60.8407 15.5398C60.8113 15.1878 60.7307 14.9238 60.5987 14.7478C60.4813 14.5718 60.298 14.4545 60.0487 14.3958C59.7993 14.3225 59.4547 14.2638 59.0147 14.2198V13.3398H63.9427V19.5658C63.9427 21.0472 64.126 22.1252 64.4927 22.7998C64.8593 23.4598 65.446 23.7898 66.2527 23.7898C67.118 23.7898 67.7853 23.3938 68.2547 22.6018C68.724 21.8392 68.9587 20.7172 68.9587 19.2358V16.9478Z"/>
    <!-- s -->
    <path d="M75.9757 24.9999H75.2937V20.9959H76.2177C76.4677 22.0519 76.8267 22.8219 77.2957 23.3059C77.7657 23.7899 78.3737 24.0319 79.1217 24.0319C79.6647 24.0319 80.0827 23.9219 80.3757 23.7019C80.6837 23.4672 80.8377 23.1519 80.8377 22.7559C80.8377 22.3452 80.6547 21.9492 80.2877 21.5679C79.9217 21.1719 79.3277 20.7539 78.5057 20.3139C77.3917 19.7126 76.5917 19.1186 76.1077 18.5319C75.6237 17.9306 75.3817 17.2559 75.3817 16.5079C75.3817 16.0239 75.4697 15.5766 75.6457 15.1659C75.8367 14.7406 76.0857 14.3739 76.3937 14.0659C76.7167 13.7579 77.0977 13.5232 77.5377 13.3619C77.9777 13.1859 78.4547 13.0979 78.9677 13.0979C79.4227 13.0979 79.8697 13.1639 80.3097 13.2959C80.7647 13.4279 81.1607 13.6112 81.4977 13.8459L81.8937 13.3179H82.4657V16.6399H81.6077C81.2707 15.8039 80.9187 15.2026 80.5517 14.8359C80.1997 14.4692 79.7677 14.2859 79.2537 14.2859C78.8437 14.2859 78.5137 14.3959 78.2637 14.6159C78.0297 14.8359 77.9117 15.1292 77.9117 15.4959C77.9117 15.9066 78.0877 16.2952 78.4397 16.6619C78.8067 17.0286 79.4077 17.4319 80.2437 17.8719C80.8307 18.1946 81.3367 18.5099 81.7617 18.8179C82.1877 19.1259 82.5317 19.4412 82.7957 19.7639C83.0597 20.0719 83.2507 20.4019 83.3677 20.7539C83.4997 21.0912 83.5657 21.4579 83.5657 21.8539C83.5657 22.3672 83.4707 22.8292 83.2797 23.2399C83.0897 23.6506 82.8177 24.0026 82.4657 24.2959C82.1137 24.5892 81.6887 24.8166 81.1897 24.9779C80.7057 25.1392 80.1637 25.2199 79.5617 25.2199C78.9317 25.2199 78.3447 25.1392 77.8017 24.9779C77.2597 24.8019 76.8117 24.5526 76.4597 24.2299L75.9757 24.9999Z"/>
  </g>
</svg>
